<svg aria-hidden="true" style="position:absolute;width:0;height:0" xmlns="http://www.w3.org/2000/svg" overflow="hidden"><defs><symbol id="ALARM" viewBox="0 0 32 32"><path d="M29.873 10.824a14.802 14.802 0 00-7.755-7.755 5.468 5.468 0 013.416-1.186 5.527 5.527 0 015.525 5.525 5.487 5.487 0 01-1.186 3.416zm-.226 6.117c0 3.624-1.421 6.908-3.727 9.355l1.911 1.911c.245.254.405.602.405.988a1.39 1.39 0 01-1.393 1.393c-.386 0-.734-.16-.988-.405l-2.052-2.052c-2.212 1.544-4.904 2.456-7.802 2.456s-5.581-.913-7.793-2.447l-2.033 2.033a1.41 1.41 0 11-1.996-1.996l1.892-1.892c-2.296-2.447-3.718-5.722-3.718-9.346C2.353 9.4 8.461 3.292 16 3.292S29.647 9.4 29.647 16.939zM16 6.118c-5.976 0-10.824 4.847-10.824 10.824S10.023 27.766 16 27.766c5.976 0 10.824-4.847 10.824-10.824S21.977 6.118 16 6.118zm5.647 12.235H16a1.41 1.41 0 01-1.412-1.412V9.412C14.588 8.631 15.219 8 16 8s1.412.631 1.412 1.412v6.118h4.235c.781 0 1.412.631 1.412 1.412s-.631 1.412-1.412 1.412zM2.155 11.021A5.616 5.616 0 01.941 7.529a5.652 5.652 0 015.647-5.647c1.318 0 2.532.452 3.492 1.214a15.037 15.037 0 00-7.925 7.925z"/></symbol><symbol id="BOOK" viewBox="0 0 33 32"><path d="M31.115 25.308l-13.619 5.638c-.169.075-.358.113-.555.113s-.386-.038-.555-.113L2.767 25.308A1.41 1.41 0 011.882 24V2.353A1.41 1.41 0 013.83 1.045h.009c0 .009 0 .009.009.009L16.94 6.475l13.092-5.421s.009 0 .009-.009h.009a1.41 1.41 0 011.948 1.308V24a1.41 1.41 0 01-.885 1.308zM15.529 8.941L4.705 4.461v18.598l10.824 4.48V8.941zm13.647-4.48l-10.824 4.48v18.598l10.824-4.48V4.461zm-8.583 6.485l5.176-2.353a1.51 1.51 0 01.584-.122 1.41 1.41 0 011.412 1.412c0 .574-.339 1.064-.828 1.289l-5.176 2.353a1.51 1.51 0 01-.584.122 1.41 1.41 0 01-1.412-1.412c0-.574.339-1.064.828-1.289zm0 5.176l5.176-2.353a1.51 1.51 0 01.584-.122 1.41 1.41 0 011.412 1.412c0 .574-.339 1.064-.828 1.289l-5.176 2.353v-.009a1.355 1.355 0 01-.584.132 1.41 1.41 0 01-1.412-1.412c0-.574.339-1.064.828-1.289zm0 5.177l5.176-2.353a1.51 1.51 0 01.584-.122 1.41 1.41 0 011.412 1.412c0 .574-.339 1.064-.828 1.289l-5.176 2.353a1.51 1.51 0 01-.584.122 1.41 1.41 0 01-1.412-1.412c0-.574.339-1.064.828-1.289zM7.529 8.471c.207 0 .405.047.584.122l5.176 2.353c.489.226.828.715.828 1.289a1.41 1.41 0 01-1.412 1.412c-.207 0-.405-.047-.584-.122l-5.176-2.353a1.417 1.417 0 01-.828-1.289 1.41 1.41 0 011.412-1.412zm0 5.176c.207 0 .405.047.584.122l5.176 2.353c.489.226.828.715.828 1.289a1.41 1.41 0 01-1.412 1.412c-.207 0-.405-.047-.584-.132v.009l-5.176-2.353a1.417 1.417 0 01-.828-1.289 1.41 1.41 0 011.412-1.412zm0 5.177c.207 0 .405.047.584.122l5.176 2.353c.489.226.828.715.828 1.289A1.41 1.41 0 0112.705 24c-.207 0-.405-.047-.584-.122l-5.176-2.353a1.417 1.417 0 01-.828-1.289 1.41 1.41 0 011.412-1.412z"/></symbol><symbol id="COMPUTER" viewBox="0 0 35 32"><path d="M32 25.806h-9.806v2.581l2.065 2.065v.516H10.84v-.516l2.065-2.065v-2.581H3.099a1.546 1.546 0 01-1.548-1.548V3.613c0-.857.692-1.548 1.548-1.548h28.903c.857 0 1.548.692 1.548 1.548v20.645c0 .857-.692 1.548-1.548 1.548zm-.516-21.677H3.613v17.548h27.871V4.129zm-17.032 7.226c.423 0 .815.175 1.094.454l.97.97 3.035-3.035a1.546 1.546 0 112.188 2.188l-4.129 4.129c-.279.279-.671.454-1.094.454s-.815-.175-1.094-.454l-2.065-2.065a1.546 1.546 0 011.094-2.642z"/></symbol><symbol id="facebook" viewBox="0 0 17 32"><path d="M14.444 2.428v4.546s-3.354-.331-4.193.949c-.452.706-.188 2.759-.221 4.237h4.436c-.375 1.721-.64 2.891-.916 4.392H9.997v14.124H3.84V16.607H1.225V12.16h2.582c.143-3.255.188-6.477 1.799-8.11 1.821-1.843 3.553-1.622 8.839-1.622z"/></symbol><symbol id="HOME" viewBox="0 0 34 32"><path d="M32.97 16.97c0 .805-.65 1.455-1.455 1.455-.388 0-.727-.155-.989-.398v.01L17.454 4.965 4.412 18.007a1.453 1.453 0 11-2.027-2.085L16.407 1.9c.262-.272.64-.446 1.047-.446h.088c.019 0 .049.01.068.01.359.039.679.204.912.456l5.721 5.721V6.303c0-.805.65-1.455 1.455-1.455s1.455.65 1.455 1.455v4.247l5.43 5.43h-.01c.242.262.398.601.398.989zm-2.909 2.424v10.182c0 .805-.65 1.455-1.455 1.455h-2.909V19.395h-5.818v11.636H6.303c-.805 0-1.455-.65-1.455-1.455V19.394L17.454 6.788 30.06 19.394zm-15.031 0H9.212v5.818h5.818v-5.818z"/></symbol><symbol id="IMAGE" viewBox="0 0 34 32"><path d="M30.588 31.059H3.294a1.41 1.41 0 01-1.412-1.412V2.353A1.41 1.41 0 013.294.941h27.294A1.41 1.41 0 0132 2.353v27.294a1.41 1.41 0 01-1.412 1.412zM29.176 3.765H4.705v24.471h24.471V3.765zM8 5.176h5.176c.781 0 1.412.631 1.412 1.412S13.957 8 13.176 8H8.941v4.235c0 .781-.631 1.412-1.412 1.412s-1.412-.631-1.412-1.412V5.176h1.882zM6.118 19.765c0-.781.631-1.412 1.412-1.412s1.412.631 1.412 1.412V24h4.235c.781 0 1.412.631 1.412 1.412s-.631 1.412-1.412 1.412H6.118v-7.059zM20.706 5.176h7.059v7.059c0 .781-.631 1.412-1.412 1.412s-1.412-.631-1.412-1.412V8h-4.235c-.781 0-1.412-.631-1.412-1.412s.631-1.412 1.412-1.412zm0 18.824h4.235v-4.235c0-.781.631-1.412 1.412-1.412s1.412.631 1.412 1.412v7.059h-7.059c-.781 0-1.412-.631-1.412-1.412S19.925 24 20.706 24z"/></symbol><symbol id="instagram" viewBox="0 0 32 32"><path d="M27.086 30.629H5.143a3.653 3.653 0 01-3.657-3.657V5.029a3.653 3.653 0 013.657-3.657h21.943a3.653 3.653 0 013.657 3.657v21.943a3.653 3.653 0 01-3.657 3.657zM16.114 10.331a5.664 5.664 0 00-5.143 3.291c-.011.023-.023.046-.023.057a5.356 5.356 0 00-.149.377l-.069.171c-.046.126-.08.263-.114.389-.011.057-.034.126-.046.183-.023.137-.046.274-.069.423 0 .057-.023.114-.023.171a5.668 5.668 0 005.635 6.275 5.668 5.668 0 005.635-6.275c0-.057-.023-.114-.023-.171-.023-.149-.046-.286-.069-.423-.023-.057-.034-.126-.046-.183-.034-.126-.069-.263-.114-.389l-.069-.171c-.046-.126-.091-.251-.149-.377a.184.184 0 00-.023-.057 5.663 5.663 0 00-5.143-3.291zm11.337-4.205c0-.811-.651-1.463-1.463-1.463h-2.926c-.811 0-1.463.651-1.463 1.463v2.926c0 .811.651 1.463 1.463 1.463h2.926c.811 0 1.463-.651 1.463-1.463V6.126zm0 7.497h-2.697a8.96 8.96 0 01-8.64 11.337 8.96 8.96 0 01-8.64-11.337H4.777v12.251c0 .811.651 1.463 1.463 1.463h19.749c.811 0 1.463-.651 1.463-1.463V13.623z"/></symbol><symbol id="LINE-GRAPH" viewBox="0 0 32 32"><path d="M28.8 31.086H2.286a1.37 1.37 0 01-1.371-1.371V3.201A1.37 1.37 0 012.286 1.83H28.8a1.37 1.37 0 011.371 1.371v26.514a1.37 1.37 0 01-1.371 1.371zM27.429 4.571H3.658v23.771h23.771V4.571zM5.687 16.677h-.009l3.657-2.286h.009c.201-.128.448-.201.713-.201.283 0 .549.082.768.229h.009l6.062 4.041 6.976-4.937c.229-.165.512-.256.814-.256a1.37 1.37 0 01.804 2.477l-7.771 5.486a1.367 1.367 0 01-.805.265c-.293 0-.567-.101-.786-.256l-6.089-4.05-2.862 1.783a1.357 1.357 0 01-.777.247 1.37 1.37 0 01-.713-2.541z"/></symbol><symbol id="MAGNIFYING-GLASS" viewBox="0 0 32 32"><path d="M29.312 25.568c.48.48.768 1.136.768 1.872a2.643 2.643 0 01-2.64 2.64 2.69 2.69 0 01-1.872-.768l-7.728-7.744a10.518 10.518 0 01-5.36 1.472c-5.84 0-10.56-4.736-10.56-10.56 0-5.84 4.72-10.56 10.56-10.56s10.56 4.72 10.56 10.56c0 1.952-.544 3.776-1.472 5.36l7.744 7.728zM12.48 4.56c-4.368 0-7.92 3.552-7.92 7.92s3.552 7.92 7.92 7.92 7.92-3.552 7.92-7.92-3.552-7.92-7.92-7.92z"/></symbol><symbol id="pinterest" viewBox="0 0 25 32"><path d="M11.09 19.697c-.232.927-.463 1.887-.706 2.825-.232.938-.441 1.876-.783 2.726-.574 1.423-1.302 2.781-2.262 3.895-.629.728-.497.441-.684.397-.154-.033-.166-.177-.188-.375-.154-1.126-.055-2.428 0-3.686.066-1.446.375-2.637.651-3.84.541-2.273 1.048-4.502 1.589-6.797.033-.154.132-.408.099-.486-.243-.64-.408-1.214-.474-1.876a6.006 6.006 0 01.154-2.152c.298-1.17 1.004-2.196 2.086-2.582.695-.232 1.457-.121 1.92.154.474.276.806.728.949 1.368.166.684.044 1.49-.088 2.086-.287 1.346-.673 2.361-1.026 3.652-.177.651-.375 1.313-.21 1.997.143.64.474 1.081.938 1.412.463.342 1.015.53 1.788.508 1.357-.055 2.295-.916 2.924-1.732 1.004-1.313 1.622-3.079 1.854-5.175.066-.673.121-1.457.077-2.218-.099-1.423-.541-2.56-1.247-3.443-.673-.839-1.622-1.512-2.77-1.887s-2.737-.497-4.138-.254c-2.56.43-4.359 1.887-5.418 3.895-.563 1.048-.927 2.262-.927 3.763 0 1.159.287 2.052.75 2.759.143.221.353.408.497.662.21.353-.022.894-.132 1.28-.121.474-.132 1.114-.673 1.126-.232.011-.519-.154-.706-.265-1.446-.794-2.317-2.24-2.67-4.127a9.662 9.662 0 010-3.564c.21-1.07.596-2.052 1.026-2.847a10.237 10.237 0 013.818-3.939c1.236-.728 2.626-1.236 4.314-1.479a14.719 14.719 0 011.766-.143c1.843-.088 3.52.32 4.778.883a9.696 9.696 0 013.288 2.372c.927 1.015 1.6 2.185 2.03 3.652.221.761.43 1.578.43 2.527 0 .938-.199 1.777-.331 2.615-.53 3.112-2.008 5.672-4.237 7.117a7.038 7.038 0 01-1.942.894c-.728.221-1.567.375-2.472.32-.872-.066-1.589-.298-2.185-.64s-1.103-.75-1.457-1.379z"/></symbol><symbol id="SHOPPING-CART" viewBox="0 0 38 32"><path d="M35.256 8.772l-4.668 10.353a1.545 1.545 0 01-1.318.922l-13.402.885.772 2.221h14.607c1.713 0 3.106 1.393 3.106 3.106s-1.393 3.106-3.106 3.106a3.11 3.11 0 01-3.106-3.106H13.647c0 1.713-1.393 3.106-3.106 3.106s-3.106-1.393-3.106-3.106a3.11 3.11 0 013.106-3.106h2.805L7.36 6.061H3.802c-.847 0-1.544-.678-1.544-1.544s.696-1.562 1.544-1.562H8.47c.678 0 1.242.452 1.468 1.054l.904 2.579h22.984a1.554 1.554 0 011.43 2.184zm-23.322.922l2.861 8.207 13.346-.904 3.294-7.304H11.934z"/></symbol><symbol id="twitter" viewBox="0 0 37 32"><path d="M24.68 2.133c2.72-.053 4.16.947 5.533 2.2 1.173-.107 2.693-.76 3.587-1.213l.88-.48c-.52 1.387-1.213 2.467-2.28 3.293-.227.187-.467.427-.76.547v.013c1.52-.013 2.773-.693 3.96-1.067v.013c-.627.987-1.467 2-2.373 2.72-.36.293-.733.587-1.093.867.013 1.613-.027 3.147-.32 4.507-1.76 7.853-6.387 13.187-13.72 15.48-2.64.813-6.893 1.16-9.907.413-1.507-.373-2.853-.8-4.12-1.347a17.34 17.34 0 01-1.987-1.027c-.2-.12-.413-.253-.613-.373.68.013 1.48.2 2.24.08.68-.107 1.36-.08 2-.213 1.587-.347 2.987-.813 4.2-1.52.587-.347 1.48-.747 1.893-1.24-.787.013-1.493-.173-2.08-.373-2.267-.8-3.587-2.28-4.44-4.48.68.067 2.667.253 3.12-.147-.867-.04-1.693-.547-2.28-.92-1.827-1.133-3.32-3.04-3.307-5.987.24.107.48.227.72.333.453.2.92.307 1.467.413.24.053.693.187.96.08h-.04c-.347-.4-.92-.68-1.28-1.12-1.16-1.453-2.267-3.693-1.573-6.347.187-.68.467-1.28.76-1.827.013 0 .027.013.027.013.147.293.44.493.64.733.6.747 1.333 1.413 2.08 2 2.56 2 4.867 3.227 8.56 4.133.933.227 2.027.413 3.147.413-.32-.92-.213-2.4.027-3.293.627-2.227 1.987-3.84 3.973-4.693.467-.213 1-.36 1.547-.48.293-.04.573-.067.853-.107z"/></symbol></defs></svg>