<svg aria-hidden="true" style="position: absolute; width: 0; height: 0; overflow: hidden;" version="1.1" xmlns="http://www.w3.org/2000/svg" xmlns:xlink="http://www.w3.org/1999/xlink">
<defs>
<symbol id="ALARM" viewBox="0 0 32 32">
<title>ALARM</title>
<path d="M29.873 10.824c-1.487-3.473-4.282-6.268-7.755-7.755 0.941-0.744 2.118-1.186 3.416-1.186 3.049 0 5.525 2.475 5.525 5.525 0 1.289-0.442 2.475-1.186 3.416zM29.647 16.941c0 3.624-1.421 6.908-3.727 9.355l1.911 1.911c0.245 0.254 0.405 0.602 0.405 0.988 0 0.772-0.621 1.393-1.393 1.393-0.386 0-0.734-0.16-0.988-0.405l-2.052-2.052c-2.212 1.544-4.904 2.456-7.802 2.456s-5.581-0.913-7.793-2.447l-2.033 2.033c-0.254 0.254-0.612 0.414-0.998 0.414-0.781 0-1.412-0.631-1.412-1.412 0-0.386 0.16-0.744 0.414-0.998l1.892-1.892c-2.296-2.447-3.718-5.722-3.718-9.346 0-7.539 6.108-13.647 13.647-13.647s13.647 6.108 13.647 13.647zM16 6.118c-5.976 0-10.824 4.847-10.824 10.824s4.847 10.824 10.824 10.824c5.976 0 10.824-4.847 10.824-10.824s-4.847-10.824-10.824-10.824zM21.647 18.353h-5.647c-0.781 0-1.412-0.631-1.412-1.412v-7.529c0-0.781 0.631-1.412 1.412-1.412s1.412 0.631 1.412 1.412v6.118h4.235c0.781 0 1.412 0.631 1.412 1.412s-0.631 1.412-1.412 1.412zM2.155 11.021c-0.762-0.969-1.214-2.174-1.214-3.492 0-3.115 2.532-5.647 5.647-5.647 1.318 0 2.532 0.452 3.492 1.214-3.558 1.515-6.409 4.367-7.925 7.925z"></path>
</symbol>

<symbol id="BOOK" viewBox="0 0 33 32">
<title>BOOK</title>
<path d="M31.115 25.308l-13.619 5.638c-0.169 0.075-0.358 0.113-0.555 0.113s-0.386-0.038-0.555-0.113l-13.619-5.638c-0.518-0.207-0.885-0.715-0.885-1.308v-21.647c0-0.781 0.631-1.412 1.412-1.412 0.188 0 0.376 0.038 0.536 0.104v0h0.009c0 0.009 0 0.009 0.009 0.009l13.092 5.421 13.092-5.421c0 0 0.009 0 0.009-0.009h0.009c0.16-0.066 0.348-0.104 0.536-0.104 0.781 0 1.412 0.631 1.412 1.412v21.647c0 0.593-0.367 1.101-0.885 1.308zM15.529 8.941l-10.824-4.48v18.598l10.824 4.48v-18.598zM29.176 4.461l-10.824 4.48v18.598l10.824-4.48v-18.598zM20.593 10.946l5.176-2.353c0.179-0.075 0.376-0.122 0.584-0.122 0.781 0 1.412 0.631 1.412 1.412 0 0.574-0.339 1.064-0.828 1.289v0l-5.176 2.353c-0.179 0.075-0.376 0.122-0.584 0.122-0.781 0-1.412-0.631-1.412-1.412 0-0.574 0.339-1.064 0.828-1.289zM20.593 16.122v0l5.176-2.353c0.179-0.075 0.376-0.122 0.584-0.122 0.781 0 1.412 0.631 1.412 1.412 0 0.574-0.339 1.064-0.828 1.289l-5.176 2.353v-0.009c-0.179 0.085-0.376 0.132-0.584 0.132-0.781 0-1.412-0.631-1.412-1.412 0-0.574 0.339-1.064 0.828-1.289zM20.593 21.299v0l5.176-2.353c0.179-0.075 0.376-0.122 0.584-0.122 0.781 0 1.412 0.631 1.412 1.412 0 0.574-0.339 1.064-0.828 1.289v0l-5.176 2.353c-0.179 0.075-0.376 0.122-0.584 0.122-0.781 0-1.412-0.631-1.412-1.412 0-0.574 0.339-1.064 0.828-1.289zM7.529 8.471c0.207 0 0.405 0.047 0.584 0.122v0l5.176 2.353c0.489 0.226 0.828 0.715 0.828 1.289 0 0.781-0.631 1.412-1.412 1.412-0.207 0-0.405-0.047-0.584-0.122v0l-5.176-2.353c-0.489-0.226-0.828-0.715-0.828-1.289 0-0.781 0.631-1.412 1.412-1.412zM7.529 13.647c0.207 0 0.405 0.047 0.584 0.122v0l5.176 2.353c0.489 0.226 0.828 0.715 0.828 1.289 0 0.781-0.631 1.412-1.412 1.412-0.207 0-0.405-0.047-0.584-0.132v0.009l-5.176-2.353c-0.489-0.226-0.828-0.715-0.828-1.289 0-0.781 0.631-1.412 1.412-1.412zM7.529 18.824c0.207 0 0.405 0.047 0.584 0.122v0l5.176 2.353c0.489 0.226 0.828 0.715 0.828 1.289 0 0.781-0.631 1.412-1.412 1.412-0.207 0-0.405-0.047-0.584-0.122v0l-5.176-2.353c-0.489-0.226-0.828-0.715-0.828-1.289 0-0.781 0.631-1.412 1.412-1.412z"></path>
</symbol>

<symbol id="COMPUTER" viewBox="0 0 35 32">
<title>COMPUTER</title>
<path d="M32 25.806h-9.806v2.581l2.065 2.065v0.516h-13.419v-0.516l2.065-2.065v-2.581h-9.806c-0.857 0-1.548-0.692-1.548-1.548v-20.645c0-0.857 0.692-1.548 1.548-1.548h28.903c0.857 0 1.548 0.692 1.548 1.548v20.645c0 0.857-0.692 1.548-1.548 1.548zM31.484 4.129h-27.871v17.548h27.871v-17.548zM14.452 11.355c0.423 0 0.815 0.175 1.094 0.454v0l0.97 0.97 3.035-3.035c0.279-0.279 0.671-0.454 1.094-0.454 0.857 0 1.548 0.692 1.548 1.548 0 0.423-0.175 0.815-0.454 1.094v0l-4.129 4.129c-0.279 0.279-0.671 0.454-1.094 0.454s-0.815-0.175-1.094-0.454v0l-2.065-2.065c-0.279-0.279-0.454-0.671-0.454-1.094 0-0.857 0.692-1.548 1.548-1.548z"></path>
</symbol>

<symbol id="facebook" viewBox="0 0 17 32">
<title>facebook</title>
<path d="M14.444 2.428c0 1.633 0 4.546 0 4.546s-3.354-0.331-4.193 0.949c-0.452 0.706-0.188 2.759-0.221 4.237 1.457 0 2.979 0 4.436 0-0.375 1.721-0.64 2.891-0.916 4.392-1.269 0-3.553 0-3.553 0v14.124c0 0-4.182 0-6.157 0 0-4.359 0-9.434 0-14.069-0.96 0-1.666 0-2.615 0 0-1.633 0-2.814 0-4.447 0.927 0 1.655 0 2.582 0 0.143-3.255 0.188-6.477 1.799-8.11 1.821-1.843 3.553-1.622 8.839-1.622z"></path>
</symbol>

<symbol id="HOME" viewBox="0 0 34 32">
<title>HOME</title>
<path d="M32.97 16.97c0 0.805-0.65 1.455-1.455 1.455-0.388 0-0.727-0.155-0.989-0.398v0.010l-13.072-13.072-13.042 13.042c-0.262 0.252-0.621 0.417-1.018 0.417-0.805 0-1.455-0.65-1.455-1.455 0-0.417 0.175-0.785 0.446-1.047l14.022-14.022c0.262-0.272 0.64-0.446 1.047-0.446v0 0c0 0 0 0 0 0 0.029 0 0.049 0 0.078 0 0 0 0.010 0 0.010 0 0.019 0 0.049 0.010 0.068 0.010 0 0 0 0 0 0 0.359 0.039 0.679 0.204 0.912 0.456v0l5.721 5.721v-1.338c0-0.805 0.65-1.455 1.455-1.455s1.455 0.65 1.455 1.455v4.247l5.43 5.43h-0.010c0.242 0.262 0.398 0.601 0.398 0.989zM30.061 19.394v10.182c0 0.805-0.65 1.455-1.455 1.455h-2.909v-11.636h-5.818v11.636h-13.576c-0.805 0-1.455-0.65-1.455-1.455v-10.182l12.606-12.606 12.606 12.606zM15.030 19.394h-5.818v5.818h5.818v-5.818z"></path>
</symbol>

<symbol id="IMAGE" viewBox="0 0 34 32">
<title>IMAGE</title>
<path d="M30.588 31.059h-27.294c-0.781 0-1.412-0.631-1.412-1.412v-27.294c0-0.781 0.631-1.412 1.412-1.412h27.294c0.781 0 1.412 0.631 1.412 1.412v27.294c0 0.781-0.631 1.412-1.412 1.412zM29.176 3.765h-24.471v24.471h24.471v-24.471zM8 5.176h5.176c0.781 0 1.412 0.631 1.412 1.412s-0.631 1.412-1.412 1.412v0h-4.235v4.235c0 0.781-0.631 1.412-1.412 1.412s-1.412-0.631-1.412-1.412v0-7.059h1.882zM6.118 19.765v0c0-0.781 0.631-1.412 1.412-1.412s1.412 0.631 1.412 1.412v0 4.235h4.235c0.781 0 1.412 0.631 1.412 1.412s-0.631 1.412-1.412 1.412v0h-7.059v-7.059zM20.706 5.176v0h7.059v7.059c0 0.781-0.631 1.412-1.412 1.412s-1.412-0.631-1.412-1.412v0-4.235h-4.235c-0.781 0-1.412-0.631-1.412-1.412s0.631-1.412 1.412-1.412zM20.706 24v0h4.235v-4.235c0-0.781 0.631-1.412 1.412-1.412s1.412 0.631 1.412 1.412v0 7.059h-7.059c-0.781 0-1.412-0.631-1.412-1.412s0.631-1.412 1.412-1.412z"></path>
</symbol>

<symbol id="instagram" viewBox="0 0 32 32">
<title>instagram</title>
<path d="M27.086 30.629h-21.943c-2.023 0-3.657-1.634-3.657-3.657v-21.943c0-2.023 1.634-3.657 3.657-3.657h21.943c2.023 0 3.657 1.634 3.657 3.657v21.943c0 2.023-1.634 3.657-3.657 3.657zM16.114 10.331c-2.286 0-4.24 1.349-5.143 3.291v0c-0.011 0.023-0.023 0.046-0.023 0.057-0.057 0.126-0.103 0.251-0.149 0.377-0.023 0.057-0.046 0.114-0.069 0.171-0.046 0.126-0.080 0.263-0.114 0.389-0.011 0.057-0.034 0.126-0.046 0.183-0.023 0.137-0.046 0.274-0.069 0.423 0 0.057-0.023 0.114-0.023 0.171-0.023 0.194-0.034 0.4-0.034 0.606 0 3.131 2.537 5.669 5.669 5.669s5.669-2.537 5.669-5.669c0-0.206-0.011-0.411-0.034-0.606 0-0.057-0.023-0.114-0.023-0.171-0.023-0.149-0.046-0.286-0.069-0.423-0.023-0.057-0.034-0.126-0.046-0.183-0.034-0.126-0.069-0.263-0.114-0.389-0.023-0.057-0.046-0.114-0.069-0.171-0.046-0.126-0.091-0.251-0.149-0.377 0-0.011-0.011-0.034-0.023-0.057v0c-0.903-1.943-2.857-3.291-5.143-3.291zM27.451 6.126c0-0.811-0.651-1.463-1.463-1.463h-2.926c-0.811 0-1.463 0.651-1.463 1.463v2.926c0 0.811 0.651 1.463 1.463 1.463h2.926c0.811 0 1.463-0.651 1.463-1.463v-2.926zM27.451 13.623h-2.697c0.206 0.754 0.32 1.554 0.32 2.377 0 4.949-4.011 8.96-8.96 8.96s-8.96-4.011-8.96-8.96c0-0.823 0.114-1.623 0.32-2.377h-2.697v12.251c0 0.811 0.651 1.463 1.463 1.463h19.749c0.811 0 1.463-0.651 1.463-1.463v-12.251z"></path>
</symbol>

<symbol id="LINE-GRAPH" viewBox="0 0 32 32">
<title>LINE-GRAPH</title>
<path d="M28.8 31.086h-26.514c-0.759 0-1.371-0.613-1.371-1.371v-26.514c0-0.759 0.613-1.371 1.371-1.371h26.514c0.759 0 1.371 0.613 1.371 1.371v26.514c0 0.759-0.613 1.371-1.371 1.371zM27.429 4.571h-23.771v23.771h23.771v-23.771zM5.687 16.677h-0.009l3.657-2.286h0.009c0.201-0.128 0.448-0.201 0.713-0.201 0.283 0 0.549 0.082 0.768 0.229h0.009l6.062 4.041 6.976-4.937c0.229-0.165 0.512-0.256 0.814-0.256 0.759 0 1.371 0.613 1.371 1.371 0 0.457-0.229 0.859-0.567 1.106v0l-7.771 5.486c-0.229 0.165-0.503 0.265-0.805 0.265-0.293 0-0.567-0.101-0.786-0.256l-6.089-4.050-2.862 1.783c-0.219 0.155-0.494 0.247-0.777 0.247-0.759 0-1.371-0.613-1.371-1.371 0-0.494 0.265-0.933 0.658-1.17z"></path>
</symbol>

<symbol id="MAGNIFYING-GLASS" viewBox="0 0 32 32">
<title>MAGNIFYING-GLASS</title>
<path d="M29.312 25.568c0.48 0.48 0.768 1.136 0.768 1.872 0 1.456-1.184 2.64-2.64 2.64-0.736 0-1.392-0.304-1.872-0.768v0l-7.728-7.744c-1.568 0.928-3.408 1.472-5.36 1.472-5.84 0-10.56-4.736-10.56-10.56 0-5.84 4.72-10.56 10.56-10.56s10.56 4.72 10.56 10.56c0 1.952-0.544 3.776-1.472 5.36l7.744 7.728zM12.48 4.56c-4.368 0-7.92 3.552-7.92 7.92s3.552 7.92 7.92 7.92c4.368 0 7.92-3.552 7.92-7.92s-3.552-7.92-7.92-7.92z"></path>
</symbol>

<symbol id="pinterest" viewBox="0 0 25 32">
<title>pinterest</title>
<path d="M11.090 19.697c-0.232 0.927-0.463 1.887-0.706 2.825-0.232 0.938-0.441 1.876-0.783 2.726-0.574 1.423-1.302 2.781-2.262 3.895-0.629 0.728-0.497 0.441-0.684 0.397-0.154-0.033-0.166-0.177-0.188-0.375-0.154-1.126-0.055-2.428 0-3.686 0.066-1.446 0.375-2.637 0.651-3.84 0.541-2.273 1.048-4.502 1.589-6.797 0.033-0.154 0.132-0.408 0.099-0.486-0.243-0.64-0.408-1.214-0.474-1.876-0.077-0.772-0.022-1.49 0.154-2.152 0.298-1.17 1.004-2.196 2.086-2.582 0.695-0.232 1.457-0.121 1.92 0.154 0.474 0.276 0.806 0.728 0.949 1.368 0.166 0.684 0.044 1.49-0.088 2.086-0.287 1.346-0.673 2.361-1.026 3.652-0.177 0.651-0.375 1.313-0.21 1.997 0.143 0.64 0.474 1.081 0.938 1.412 0.463 0.342 1.015 0.53 1.788 0.508 1.357-0.055 2.295-0.916 2.924-1.732 1.004-1.313 1.622-3.079 1.854-5.175 0.066-0.673 0.121-1.457 0.077-2.218-0.099-1.423-0.541-2.56-1.247-3.443-0.673-0.839-1.622-1.512-2.77-1.887s-2.737-0.497-4.138-0.254c-2.56 0.43-4.359 1.887-5.418 3.895-0.563 1.048-0.927 2.262-0.927 3.763 0 1.159 0.287 2.052 0.75 2.759 0.143 0.221 0.353 0.408 0.497 0.662 0.21 0.353-0.022 0.894-0.132 1.28-0.121 0.474-0.132 1.114-0.673 1.126-0.232 0.011-0.519-0.154-0.706-0.265-1.446-0.794-2.317-2.24-2.67-4.127-0.221-1.137-0.221-2.461 0-3.564 0.21-1.070 0.596-2.052 1.026-2.847 0.905-1.666 2.218-2.99 3.818-3.939 1.236-0.728 2.626-1.236 4.314-1.479 0.563-0.088 1.137-0.121 1.766-0.143 1.843-0.088 3.52 0.32 4.778 0.883 1.335 0.596 2.394 1.39 3.288 2.372 0.927 1.015 1.6 2.185 2.030 3.652 0.221 0.761 0.43 1.578 0.43 2.527 0 0.938-0.199 1.777-0.331 2.615-0.53 3.112-2.008 5.672-4.237 7.117-0.541 0.353-1.192 0.684-1.942 0.894-0.728 0.221-1.567 0.375-2.472 0.32-0.872-0.066-1.589-0.298-2.185-0.64s-1.103-0.75-1.457-1.379z"></path>
</symbol>

<symbol id="SHOPPING-CART" viewBox="0 0 38 32">
<title>SHOPPING-CART</title>
<path d="M35.256 8.772v0l-4.668 10.353c-0.226 0.508-0.715 0.885-1.318 0.922v0l-13.402 0.885 0.772 2.221h14.607c1.713 0 3.106 1.393 3.106 3.106s-1.393 3.106-3.106 3.106c-1.713 0-3.106-1.393-3.106-3.106h-14.494c0 1.713-1.393 3.106-3.106 3.106s-3.106-1.393-3.106-3.106c0-1.713 1.393-3.106 3.106-3.106h2.805l-5.986-17.092h-3.558c-0.847 0-1.544-0.678-1.544-1.544s0.696-1.562 1.544-1.562h4.668c0.678 0 1.242 0.452 1.468 1.054v0l0.904 2.579h22.984c0.866 0 1.562 0.696 1.562 1.544 0 0.245-0.056 0.452-0.132 0.64zM11.934 9.694l2.861 8.207 13.346-0.904 3.294-7.304h-19.501z"></path>
</symbol>

<symbol id="twitter" viewBox="0 0 37 32">
<title>twitter</title>
<path d="M24.68 2.133c2.72-0.053 4.16 0.947 5.533 2.2 1.173-0.107 2.693-0.76 3.587-1.213 0.293-0.16 0.587-0.32 0.88-0.48-0.52 1.387-1.213 2.467-2.28 3.293-0.227 0.187-0.467 0.427-0.76 0.547 0 0 0 0.013 0 0.013 1.52-0.013 2.773-0.693 3.96-1.067 0 0 0 0 0 0.013-0.627 0.987-1.467 2-2.373 2.72-0.36 0.293-0.733 0.587-1.093 0.867 0.013 1.613-0.027 3.147-0.32 4.507-1.76 7.853-6.387 13.187-13.72 15.48-2.64 0.813-6.893 1.16-9.907 0.413-1.507-0.373-2.853-0.8-4.12-1.347-0.707-0.307-1.36-0.653-1.987-1.027-0.2-0.12-0.413-0.253-0.613-0.373 0.68 0.013 1.48 0.2 2.24 0.080 0.68-0.107 1.36-0.080 2-0.213 1.587-0.347 2.987-0.813 4.2-1.52 0.587-0.347 1.48-0.747 1.893-1.24-0.787 0.013-1.493-0.173-2.080-0.373-2.267-0.8-3.587-2.28-4.44-4.48 0.68 0.067 2.667 0.253 3.12-0.147-0.867-0.040-1.693-0.547-2.28-0.92-1.827-1.133-3.32-3.040-3.307-5.987 0.24 0.107 0.48 0.227 0.72 0.333 0.453 0.2 0.92 0.307 1.467 0.413 0.24 0.053 0.693 0.187 0.96 0.080-0.013 0-0.027 0-0.040 0-0.347-0.4-0.92-0.68-1.28-1.12-1.16-1.453-2.267-3.693-1.573-6.347 0.187-0.68 0.467-1.28 0.76-1.827 0.013 0 0.027 0.013 0.027 0.013 0.147 0.293 0.44 0.493 0.64 0.733 0.6 0.747 1.333 1.413 2.080 2 2.56 2 4.867 3.227 8.56 4.133 0.933 0.227 2.027 0.413 3.147 0.413-0.32-0.92-0.213-2.4 0.027-3.293 0.627-2.227 1.987-3.84 3.973-4.693 0.467-0.213 1-0.36 1.547-0.48 0.293-0.040 0.573-0.067 0.853-0.107z"></path>
</symbol>
</defs>
</svg>
